<?xml version="1.0" encoding="iso-8859-1"?>
<!-- Generator: Adobe Illustrator 19.0.0, SVG Export Plug-In . SVG Version: 6.00 Build 0)  -->
<svg version="1.1" id="Layer_1" xmlns="http://www.w3.org/2000/svg" xmlns:xlink="http://www.w3.org/1999/xlink" x="0px" y="0px"
	 viewBox="0 0 511.999 511.999" style="enable-background:new 0 0 511.999 511.999;" xml:space="preserve">
<path style="fill:#FF6465;" d="M384.955,256l120.28-120.28c9.019-9.019,9.019-23.642,0-32.66L408.94,6.765
	c-9.019-9.019-23.642-9.019-32.66,0l-120.28,120.28L135.718,6.765c-9.019-9.019-23.642-9.019-32.66,0L6.764,103.058
	c-9.019,9.019-9.019,23.642,0,32.66l120.28,120.28L6.764,376.28c-9.019,9.019-9.019,23.642,0,32.66l96.295,96.294
	c9.019,9.019,23.642,9.019,32.66,0l120.28-120.28l120.28,120.28c9.019,9.019,23.642,9.019,32.66,0l96.295-96.294
	c9.019-9.019,9.019-23.642,0-32.66L384.955,256z"/>
<g>
</g>
<g>
</g>
<g>
</g>
<g>
</g>
<g>
</g>
<g>
</g>
<g>
</g>
<g>
</g>
<g>
</g>
<g>
</g>
<g>
</g>
<g>
</g>
<g>
</g>
<g>
</g>
<g>
</g>
</svg>
